<svg width="456" height="456" viewBox="0 0 456 456" fill="none" xmlns="http://www.w3.org/2000/svg">
    <rect width="456" height="456" rx="100" fill="#512BD4"/>
    <path d="M228 64C136.5 64 64 136.5 64 228C64 319.5 136.5 392 228 392C319.5 392 392 319.5 392 228C392 136.5 319.5 64 228 64Z" fill="white"/>
    <path d="M228 100C157.3 100 100 157.3 100 228C100 298.7 157.3 356 228 356C298.7 356 356 298.7 356 228C356 157.3 298.7 100 228 100Z" fill="#512BD4"/>
    <path d="M180 180H276V200H180V180ZM180 220H276V240H180V220ZM180 260H240V280H180V260Z" fill="white"/>
</svg>
